<svg xmlns="http://www.w3.org/2000/svg" width="780" height="440" viewBox="0 0 780 440"><defs><style>.a{fill:#24e0c5;}.b{fill:#7dead5;}.c{fill:#162020;}.d{fill:#ffbc00;}.e{fill:#fff;}.f{fill:#b3f2e6;}</style></defs><rect class="a" x="0.0018" y="0.0014" width="780" height="440"/><path class="b" d="M647.1593,151.1207a88.3532,88.3532,0,0,0-17.5146-42.2647L642.7706,95.73,626.2181,79.1776,613.0923,92.3035A88.3541,88.3541,0,0,0,570.8277,74.789V56.234H547.4188V74.789a88.3541,88.3541,0,0,0-42.2646,17.5145L492.0284,79.1776,475.476,95.73l13.1257,13.1258a88.354,88.354,0,0,0-17.5145,42.2647H452.532V174.53h18.5552a88.354,88.354,0,0,0,17.5145,42.2647L475.4759,229.92l16.5525,16.5526,13.1258-13.126a88.3541,88.3541,0,0,0,42.2646,17.5145v18.555h23.4089v-18.555a88.3531,88.3531,0,0,0,42.2646-17.5145l13.1258,13.1259L642.7705,229.92l-13.1258-13.1259A88.3542,88.3542,0,0,0,647.1593,174.53h18.5552V151.1207Zm-88.0361,49.1267a37.4223,37.4223,0,1,1,37.4223-37.4223A37.4222,37.4222,0,0,1,559.1232,200.2474Z"/><path class="c" d="M570.8276,56.234V74.789a88.354,88.354,0,0,1,42.2647,17.5145l13.1258-13.1259L642.7706,95.73l-13.1258,13.126a88.3545,88.3545,0,0,1,17.5145,42.2647h18.5552V174.53H647.1593a88.354,88.354,0,0,1-17.5145,42.2647L642.7705,229.92l-16.5524,16.5526-13.1258-13.1259a88.3531,88.3531,0,0,1-42.2647,17.5145v18.555H547.4188v-18.555a88.3541,88.3541,0,0,1-42.2646-17.5145l-13.1258,13.126L475.4758,229.92l13.1259-13.1259A88.355,88.355,0,0,1,471.0872,174.53H452.532V151.1207h18.5552a88.3554,88.3554,0,0,1,17.5145-42.2647L475.476,95.73l16.5524-16.5526,13.1258,13.1259A88.3541,88.3541,0,0,1,547.4188,74.789V56.234h23.4088M559.1233,200.2474a37.4223,37.4223,0,1,0-37.4223-37.4223,37.4222,37.4222,0,0,0,37.4223,37.4223M570.8276,54.984H547.4188a1.25,1.25,0,0,0-1.25,1.25V73.7a89.8646,89.8646,0,0,0-40.9006,16.95l-12.3558-12.356a1.25,1.25,0,0,0-1.7679,0L474.592,94.8463a1.25,1.25,0,0,0,0,1.7677L486.9479,108.97a89.8666,89.8666,0,0,0-16.95,40.9008H452.532a1.25,1.25,0,0,0-1.25,1.25V174.53a1.25,1.25,0,0,0,1.25,1.25h17.4658a89.8657,89.8657,0,0,0,16.95,40.9008l-12.356,12.356a1.25,1.25,0,0,0,0,1.7677l16.5526,16.5525a1.25,1.25,0,0,0,1.7679,0l12.3558-12.356a89.8652,89.8652,0,0,0,40.9006,16.95v17.4656a1.25,1.25,0,0,0,1.25,1.25h23.4088a1.25,1.25,0,0,0,1.25-1.25V251.9506a89.8666,89.8666,0,0,0,40.9008-16.95l12.3558,12.3559a1.25,1.25,0,0,0,1.7679,0l16.5523-16.5525a1.25,1.25,0,0,0,0-1.7677L631.2986,216.68a89.8683,89.8683,0,0,0,16.95-40.9008h17.4658a1.25,1.25,0,0,0,1.25-1.25V151.1207a1.25,1.25,0,0,0-1.25-1.25H648.2487a89.8683,89.8683,0,0,0-16.95-40.9008l12.3559-12.356a1.25,1.25,0,0,0,0-1.7677L627.1021,78.2937a1.25,1.25,0,0,0-1.7679,0L612.9784,90.65A89.8653,89.8653,0,0,0,572.0776,73.7V56.234a1.25,1.25,0,0,0-1.25-1.25ZM559.1233,198.9974a36.1723,36.1723,0,1,1,36.1722-36.1723,36.2133,36.2133,0,0,1-36.1722,36.1723Z"/><circle class="a" cx="559.1232" cy="162.8251" r="73.9622"/><path class="c" d="M559.1233,88.8629a73.9622,73.9622,0,1,1-73.9623,73.9622,73.9622,73.9622,0,0,1,73.9623-73.9622m0-1.25a75.2122,75.2122,0,1,0,75.2121,75.2122,75.2975,75.2975,0,0,0-75.2121-75.2122Z"/><polygon class="d" points="601.313 205.725 594.291 205.725 594.291 154.526 597.802 147.355 601.313 154.526 601.313 205.725"/><path class="c" d="M601.9375,206.35H593.665V154.3813l4.1368-8.4477,4.1357,8.4477Zm-7.0225-1.25h5.7725V154.6714l-2.8857-5.895-2.8868,5.895Z"/><rect class="c" x="594.1709" y="200.4707" width="7.0215" height="1.25"/><rect class="c" x="594.1709" y="154.3555" width="7.0215" height="1.25"/><path class="c" d="M586.9,206.35H516.9336a.6253.6253,0,0,1-.625-.625V118.8613a.6253.6253,0,0,1,.625-.625H586.9a.6253.6253,0,0,1,.625.625v86.8638A.6253.6253,0,0,1,586.9,206.35Zm-69.3418-1.25h68.7168V119.4863H517.5586Z"/><rect class="e" x="524.7203" y="118.8614" width="54.3931" height="77.1966"/><path class="c" d="M579.1133,196.6831H524.7207a.6253.6253,0,0,1-.625-.625V118.8613a.6253.6253,0,0,1,.625-.625h54.3926a.6253.6253,0,0,1,.625.625v77.1968A.6253.6253,0,0,1,579.1133,196.6831Zm-53.7676-1.25h53.1426V119.4863H525.3457Z"/><path class="d" d="M558.28,115.875a6.6126,6.6126,0,0,0-12.7935,0c-6.8817.859-11.7866,3.0554-11.7866,5.6371,0,3.3293,8.1409,6.0282,18.1833,6.0282s18.1833-2.6989,18.1833-6.0282C570.066,118.93,565.1611,116.734,558.28,115.875Z"/><path class="c" d="M551.8828,128.1655c-9.1182,0-18.8086-2.332-18.8086-6.6533,0-3.3994,6.086-5.42,11.9278-6.2046a7.237,7.237,0,0,1,13.7617,0c5.8418.7847,11.9277,2.8052,11.9277,6.2046C570.6914,125.8335,561.001,128.1655,551.8828,128.1655Zm0-16.6025a5.9939,5.9939,0,0,0-5.792,4.4707.6242.6242,0,0,1-.5273.4614c-6.6172.8262-11.2393,2.8892-11.2393,5.0171,0,2.5557,7.211,5.4033,17.5586,5.4033s17.5586-2.8476,17.5586-5.4033c0-2.1279-4.6221-4.1909-11.2393-5.0171a.6243.6243,0,0,1-.5273-.4614A5.9938,5.9938,0,0,0,551.8828,111.563Z"/><path class="c" d="M537.6064,187.6128a5.8438,5.8438,0,1,1,4.4844-2.0879h0a5.8,5.8,0,0,1-3.9638,2.0649Q537.8661,187.6126,537.6064,187.6128Zm.0176-10.4331c-.1357,0-.2715.0063-.4082.0181a4.591,4.591,0,1,0,3.918,7.5244v0a4.5917,4.5917,0,0,0-3.51-7.542Z"/><path class="c" d="M552.6748,172.5435a5.8455,5.8455,0,1,1,.52-.0225Q552.9346,172.5437,552.6748,172.5435Zm.0147-10.43a4.59,4.59,0,1,0,3.5136,7.539h0a4.5883,4.5883,0,0,0-3.5136-7.539Z"/><path class="c" d="M567.7451,157.4746a5.8561,5.8561,0,1,1,.5195-.0229C568.0908,157.4668,567.917,157.4746,567.7451,157.4746Zm.0176-10.4331c-.1357,0-.2715.0064-.4082.0181a4.5728,4.5728,0,1,0,.4082-.0181Z"/><path class="c" d="M572.0244,185.9648a.6246.6246,0,0,1-.4375-.1782l-8.539-8.3525a.6253.6253,0,1,1,.875-.8936l8.539,8.3526a.6249.6249,0,0,1-.4375,1.0717Z"/><path class="c" d="M563.5791,186.0581a.6255.6255,0,0,1-.4473-1.062l8.3516-8.5391a.6253.6253,0,0,1,.8945.8741l-8.3515,8.539A.6263.6263,0,0,1,563.5791,186.0581Z"/><path class="c" d="M540.959,154.8994a.6251.6251,0,0,1-.4375-.1782l-8.5391-8.3525a.6253.6253,0,0,1,.875-.8936l8.5391,8.3525a.625.625,0,0,1-.4375,1.0718Z"/><path class="c" d="M532.5137,154.9927a.6255.6255,0,0,1-.4473-1.062l8.3516-8.5391a.6253.6253,0,0,1,.8945.874l-8.3516,8.5391A.6259.6259,0,0,1,532.5137,154.9927Z"/><path class="c" d="M537.6631,176.8276a.6254.6254,0,0,1-.6231-.5844,23.509,23.509,0,0,1,2.2452-12.3067c1.9189-3.78,4.5048-5.9809,7.0058-8.1089,2.5772-2.1933,5.0117-4.2646,6.1641-7.8657a15.6876,15.6876,0,0,0-.1406-9.3017.6248.6248,0,1,1,1.1992-.3516,16.9138,16.9138,0,0,1,.1328,10.0342c-1.2627,3.9409-3.8281,6.125-6.5449,8.4365-2.4073,2.0483-4.8955,4.1665-6.7012,7.7231a22.2611,22.2611,0,0,0-2.1123,11.66.6256.6256,0,0,1-.584.6641C537.69,176.8271,537.6768,176.8276,537.6631,176.8276Z"/><path class="c" d="M558.5654,143.8071a.6237.6237,0,0,1-.4424-.1831l-5.1406-5.1411-5.1406,5.1411a.6253.6253,0,0,1-.8848-.8838l5.583-5.583a.6261.6261,0,0,1,.8848,0l5.583,5.583a.625.625,0,0,1-.4424,1.0669Z"/><path class="b" d="M477.0247,265.4705A88.3532,88.3532,0,0,0,459.51,223.2058L472.636,210.08l-16.5525-16.5525-13.1258,13.126a88.3545,88.3545,0,0,0-42.2647-17.5145v-18.555H377.2842v18.555A88.3545,88.3545,0,0,0,335.02,206.6533l-13.1257-13.1259L305.3413,210.08l13.1258,13.1259a88.3542,88.3542,0,0,0-17.5146,42.2647H282.3974v23.4088h18.5551a88.3542,88.3542,0,0,0,17.5146,42.2647L305.3412,344.27l16.5526,16.5525L335.02,347.6965a88.3545,88.3545,0,0,0,42.2647,17.5145v18.555H400.693V365.211a88.3545,88.3545,0,0,0,42.2647-17.5145l13.1258,13.1258L472.6359,344.27,459.51,331.144a88.3542,88.3542,0,0,0,17.5146-42.2647H495.58V265.4705Zm-88.0361,49.1267a37.4224,37.4224,0,1,1,37.4223-37.4223A37.4222,37.4222,0,0,1,388.9886,314.5972Z"/><path class="c" d="M400.693,170.5838v18.555a88.3541,88.3541,0,0,1,42.2646,17.5145l13.1259-13.126L472.636,210.08,459.51,223.2058a88.3532,88.3532,0,0,1,17.5146,42.2647H495.58v23.4088H477.0247A88.3536,88.3536,0,0,1,459.51,331.144L472.6359,344.27l-16.5524,16.5525-13.1259-13.1258A88.3531,88.3531,0,0,1,400.693,365.211v18.555H377.2842V365.211A88.3545,88.3545,0,0,1,335.02,347.6965l-13.1257,13.1259L305.3412,344.27l13.126-13.1259a88.3541,88.3541,0,0,1-17.5147-42.2647H282.3973V265.4705h18.5552a88.3533,88.3533,0,0,1,17.5147-42.2647L305.3413,210.08l16.5525-16.5526L335.02,206.6533a88.3545,88.3545,0,0,1,42.2647-17.5145v-18.555H400.693M388.9886,314.5972a37.4224,37.4224,0,1,0-37.4222-37.4223,37.4223,37.4223,0,0,0,37.4222,37.4223M400.693,169.3338H377.2842a1.25,1.25,0,0,0-1.25,1.25V188.05A89.865,89.865,0,0,0,335.1335,205l-12.3558-12.356a1.25,1.25,0,0,0-1.7678,0l-16.5525,16.5526a1.25,1.25,0,0,0,0,1.7677l12.356,12.3559a89.8665,89.8665,0,0,0-16.95,40.9008H282.3973a1.25,1.25,0,0,0-1.25,1.25v23.4088a1.25,1.25,0,0,0,1.25,1.25h17.4659a89.867,89.867,0,0,0,16.95,40.9008L304.4573,343.386a1.25,1.25,0,0,0,0,1.7678L321.01,361.7063a1.25,1.25,0,0,0,1.7678,0l12.3558-12.356a89.8656,89.8656,0,0,0,40.9007,16.95V383.766a1.25,1.25,0,0,0,1.25,1.25H400.693a1.25,1.25,0,0,0,1.25-1.25V366.3a89.866,89.866,0,0,0,40.9008-16.95L455.2,361.7062a1.25,1.25,0,0,0,1.7678,0L473.52,345.1537a1.25,1.25,0,0,0,0-1.7677L461.1639,331.03a89.8659,89.8659,0,0,0,16.95-40.9008H495.58a1.25,1.25,0,0,0,1.25-1.25V265.4705a1.25,1.25,0,0,0-1.25-1.25H478.114a89.8661,89.8661,0,0,0-16.95-40.9008l12.356-12.356a1.25,1.25,0,0,0,0-1.7677l-16.5525-16.5526a1.25,1.25,0,0,0-1.7678,0L442.8436,205a89.865,89.865,0,0,0-40.9006-16.95V170.5838a1.25,1.25,0,0,0-1.25-1.25ZM388.9886,313.3472a36.1724,36.1724,0,1,1,36.1723-36.1723,36.2132,36.2132,0,0,1-36.1723,36.1723Z"/><circle class="a" cx="388.9886" cy="277.1749" r="73.9622"/><path class="c" d="M388.9886,203.2127a73.9622,73.9622,0,1,1-73.9622,73.9622,73.9622,73.9622,0,0,1,73.9622-73.9622m0-1.25a75.2122,75.2122,0,1,0,75.2122,75.2122,75.2974,75.2974,0,0,0-75.2122-75.2122Z"/><path class="e" d="M402.8,320.8813l0-14.2572a27.6449,27.6449,0,0,1,7.5786-19.0171,29.4609,29.4609,0,1,0-43.6392-.9469,32.9952,32.9952,0,0,1,8.4377,21.57v12.6515a4.8177,4.8177,0,0,0,4.8178,4.8177h17.9873A4.8176,4.8176,0,0,0,402.8,320.8813Z"/><path class="c" d="M397.9824,326.3242H379.9951a5.4489,5.4489,0,0,1-5.4433-5.4433V308.23a32.4965,32.4965,0,0,0-8.2842-21.1592,29.8483,29.8483,0,0,1-7.1309-23.4648,30.1919,30.1919,0,0,1,26.3887-26.126,30.0779,30.0779,0,0,1,25.3076,50.5576,26.9132,26.9132,0,0,0-7.4082,18.5869v14.2569A5.4487,5.4487,0,0,1,397.9824,326.3242Zm-8.9521-87.791a30.35,30.35,0,0,0-3.3662.1885,28.9319,28.9319,0,0,0-25.2871,25.0342,28.617,28.617,0,0,0,6.8339,22.4941,33.7457,33.7457,0,0,1,8.5909,21.9795v12.6514a4.1977,4.1977,0,0,0,4.1933,4.1933h17.9873a4.1975,4.1975,0,0,0,4.1924-4.1933V306.624a28.16,28.16,0,0,1,7.75-19.4463A28.828,28.828,0,0,0,389.03,238.5332Z"/><path class="c" d="M402.2148,306.5918H375.7627a.625.625,0,0,1,0-1.25h26.4521a.625.625,0,0,1,0,1.25Z"/><path class="c" d="M397.13,313.4121H380.8477a.625.625,0,0,1,0-1.25H397.13a.625.625,0,0,1,0,1.25Z"/><path class="c" d="M397.13,320.1924H380.8477a.625.625,0,1,1,0-1.25H397.13a.625.625,0,0,1,0,1.25Z"/><path class="c" d="M389.2861,232.2354a.6256.6256,0,0,1-.625-.625V219.0352a.625.625,0,1,1,1.25,0V231.61A.6255.6255,0,0,1,389.2861,232.2354Z"/><path class="c" d="M411.291,237.6807a.6251.6251,0,0,1-.54-.9375l6.2871-10.8907a.6248.6248,0,1,1,1.082.625l-6.2871,10.8907A.6239.6239,0,0,1,411.291,237.6807Z"/><path class="c" d="M424.3418,252.9131a.6249.6249,0,0,1-.3135-1.166l10.8906-6.2881a.6248.6248,0,1,1,.625,1.082l-10.8906,6.2881A.6251.6251,0,0,1,424.3418,252.9131Z"/><path class="c" d="M367.2812,237.6807a.6239.6239,0,0,1-.5419-.3125l-6.2872-10.8907a.6248.6248,0,0,1,1.0821-.625l6.2871,10.8907a.6251.6251,0,0,1-.54.9375Z"/><path class="c" d="M353.6348,252.9131a.6257.6257,0,0,1-.3116-.084l-10.8906-6.2881a.6248.6248,0,0,1,.625-1.082l10.8906,6.2881a.6249.6249,0,0,1-.3134,1.166Z"/><path class="b" d="M306.89,151.1207a88.3542,88.3542,0,0,0-17.5146-42.2647L302.5014,95.73,285.9488,79.1776,272.823,92.3035A88.3541,88.3541,0,0,0,230.5584,74.789V56.234H207.15V74.789a88.3545,88.3545,0,0,0-42.2646,17.5145L151.7591,79.1776,135.2067,95.73l13.1258,13.1258a88.3542,88.3542,0,0,0-17.5146,42.2647H112.2627V174.53h18.5552a88.3542,88.3542,0,0,0,17.5146,42.2647L135.2066,229.92l16.5525,16.5526,13.1258-13.126A88.3545,88.3545,0,0,0,207.15,250.8612v18.555h23.4089v-18.555a88.3531,88.3531,0,0,0,42.2646-17.5145l13.1258,13.1259L302.5013,229.92l-13.1258-13.1259A88.3552,88.3552,0,0,0,306.89,174.53h18.5551V151.1207ZM218.854,200.2474a37.4223,37.4223,0,1,1,37.4222-37.4223A37.4223,37.4223,0,0,1,218.854,200.2474Z"/><path class="c" d="M230.5583,56.234V74.789A88.354,88.354,0,0,1,272.823,92.3035l13.1259-13.1259L302.5013,95.73l-13.1258,13.126A88.3535,88.3535,0,0,1,306.89,151.1207h18.5552V174.53H306.89a88.354,88.354,0,0,1-17.5145,42.2647L302.5012,229.92l-16.5523,16.5526L272.823,233.3467a88.3531,88.3531,0,0,1-42.2647,17.5145v18.555H207.15v-18.555a88.3545,88.3545,0,0,1-42.2646-17.5145l-13.1258,13.126L135.2066,229.92l13.1259-13.1259A88.3542,88.3542,0,0,1,130.8179,174.53H112.2628V151.1207h18.5551a88.3546,88.3546,0,0,1,17.5146-42.2647L135.2067,95.73l16.5524-16.5526,13.1258,13.1259A88.3545,88.3545,0,0,1,207.15,74.789V56.234h23.4088M218.854,200.2474a37.4223,37.4223,0,1,0-37.4223-37.4223,37.4222,37.4222,0,0,0,37.4223,37.4223M230.5583,54.984H207.15a1.25,1.25,0,0,0-1.25,1.25V73.7a89.8663,89.8663,0,0,0-40.9007,16.95l-12.3559-12.356a1.25,1.25,0,0,0-1.7677,0L134.3228,94.8463a1.25,1.25,0,0,0,0,1.7677L146.6786,108.97a89.8692,89.8692,0,0,0-16.95,40.9008H112.2628a1.25,1.25,0,0,0-1.25,1.25V174.53a1.25,1.25,0,0,0,1.25,1.25h17.4657a89.8692,89.8692,0,0,0,16.95,40.9008l-12.3559,12.356a1.25,1.25,0,0,0,0,1.7677l16.5525,16.5525a1.25,1.25,0,0,0,1.7677,0l12.3559-12.356a89.8669,89.8669,0,0,0,40.9007,16.95v17.4656a1.25,1.25,0,0,0,1.25,1.25h23.4088a1.25,1.25,0,0,0,1.25-1.25V251.9506a89.8666,89.8666,0,0,0,40.9008-16.95l12.3558,12.3559a1.25,1.25,0,0,0,1.7679,0l16.5523-16.5525a1.25,1.25,0,0,0,0-1.7677L291.0293,216.68a89.8672,89.8672,0,0,0,16.95-40.9008h17.4658a1.25,1.25,0,0,0,1.25-1.25V151.1207a1.25,1.25,0,0,0-1.25-1.25H307.9794a89.8654,89.8654,0,0,0-16.95-40.9008l12.356-12.356a1.25,1.25,0,0,0,0-1.7677L286.8328,78.2937a1.25,1.25,0,0,0-1.7679,0L272.7091,90.65A89.8653,89.8653,0,0,0,231.8083,73.7V56.234a1.25,1.25,0,0,0-1.25-1.25ZM218.854,198.9974a36.1723,36.1723,0,1,1,36.1722-36.1723,36.2133,36.2133,0,0,1-36.1722,36.1723Z"/><circle class="a" cx="218.854" cy="162.8251" r="73.9622"/><path class="c" d="M218.854,88.8629a73.9622,73.9622,0,1,1-73.9622,73.9622A73.9623,73.9623,0,0,1,218.854,88.8629m0-1.25a75.2122,75.2122,0,1,0,75.2122,75.2122A75.2974,75.2974,0,0,0,218.854,87.6129Z"/><rect class="d" x="245.9274" y="177.1584" width="13.8812" height="25.4605"/><path class="c" d="M259.8086,203.2441H245.9277a.6252.6252,0,0,1-.625-.625V177.1582a.6253.6253,0,0,1,.625-.625h13.8809a.6253.6253,0,0,1,.625.625v25.4609A.6252.6252,0,0,1,259.8086,203.2441Zm-13.2559-1.25h12.6309V177.7832H246.5527Z"/><rect class="e" x="223.7061" y="156.1371" width="13.8812" height="46.4818"/><path class="c" d="M237.5874,156.1371v46.4818H223.7062V156.1371h13.8812m0-1.25H223.7062a1.25,1.25,0,0,0-1.25,1.25v46.4818a1.25,1.25,0,0,0,1.25,1.25h13.8812a1.25,1.25,0,0,0,1.25-1.25V156.1371a1.25,1.25,0,0,0-1.25-1.25Z"/><rect class="d" x="201.4851" y="134.3934" width="13.8812" height="68.2255"/><path class="c" d="M215.3662,203.2441H201.4854a.6252.6252,0,0,1-.625-.625V134.3936a.6252.6252,0,0,1,.625-.625h13.8808a.6252.6252,0,0,1,.625.625v68.2255A.6252.6252,0,0,1,215.3662,203.2441Zm-13.2558-1.25h12.6308V135.0186H202.11Z"/><rect class="f" x="179.264" y="157.5071" width="13.8812" height="45.1118"/><path class="c" d="M193.1452,157.5071v45.1118H179.264l0-45.1118h13.8813m0-1.25H179.2639a1.25,1.25,0,0,0-1.25,1.25l0,45.1118a1.25,1.25,0,0,0,1.25,1.25h13.8812a1.25,1.25,0,0,0,1.25-1.25V157.5071a1.25,1.25,0,0,0-1.25-1.25Z"/><line class="b" x1="249.1702" y1="139.4279" x2="265.7646" y2="156.0223"/><path class="c" d="M265.7646,156.6475a.6237.6237,0,0,1-.4423-.1831L248.7275,139.87a.6253.6253,0,1,1,.8848-.8838l16.5947,16.5948a.625.625,0,0,1-.4424,1.0669Z"/><circle class="b" cx="240.1173" cy="130.375" r="12.8028"/><path class="c" d="M240.1173,117.5722a12.8028,12.8028,0,1,1-12.8028,12.8028,12.8028,12.8028,0,0,1,12.8028-12.8028m0-1.25A14.0528,14.0528,0,1,0,254.17,130.375a14.0687,14.0687,0,0,0-14.0527-14.0528Z"/><path class="c" d="M374.5791,87.167a5.5378,5.5378,0,1,1,.4912-.022Q374.8242,87.1671,374.5791,87.167Zm.0127-9.7788a4.2639,4.2639,0,1,0,3.2646,7.0044v-.0005a4.2626,4.2626,0,0,0-3.2646-7.0039Z"/><path class="c" d="M366.4688,139.481a.6208.6208,0,0,1-.4366-.1783l-8.0058-7.83a.6246.6246,0,1,1,.873-.8936l8.0059,7.83a.6246.6246,0,0,1-.4365,1.0718Z"/><path class="c" d="M358.5508,139.5688a.625.625,0,0,1-.4473-1.062l7.83-8.0053a.6253.6253,0,1,1,.8945.874l-7.83,8.0054A.6258.6258,0,0,1,358.5508,139.5688Z"/><path class="c" d="M405.1211,125.5361a.6259.6259,0,0,1-.6221-.57l-.7656-8.7353a.6259.6259,0,0,1,.5684-.6773l8.7353-.7651a.64.64,0,0,1,.6777.5679l.7657,8.7353a.6306.6306,0,0,1-.1446.4566.623.623,0,0,1-.4238.2207l-8.7353.7651C405.1582,125.5352,405.14,125.5361,405.1211,125.5361Zm-.0879-8.7924.6572,7.49,7.49-.6558-.6573-7.49Z"/></svg>